<svg xmlns="http://www.w3.org/2000/svg">
    <symbol id="home-outline" viewBox="0 0 20 20">
        <title>Home Icon</title>
        <!-- Código SVG que almacenará el symbol -->
        <path fill-rule="evenodd" clip-rule="evenodd"
            d="M9.29289 0.292893C9.68342 -0.0976311 10.3166 -0.0976311 10.7071 0.292893L19.7071 9.29289C20.0976 9.68342 20.0976 10.3166 19.7071 10.7071C19.3166 11.0976 18.6834 11.0976 18.2929 10.7071L18 10.4142V18C18 19.1046 17.1046 20 16 20H4C2.89543 20 2 19.1046 2 18V10.4142L1.70711 10.7071C1.31658 11.0976 0.683417 11.0976 0.292893 10.7071C-0.0976311 10.3166 -0.0976311 9.68342 0.292893 9.29289L9.29289 0.292893ZM4 8.41421V18H7V14C7 12.8954 7.89543 12 9 12H11C12.1046 12 13 12.8954 13 14V18H16V8.41421L10 2.41421L4 8.41421ZM11 18V14H9V18H11Z" />
    </symbol>
    <symbol id="react" viewBox="0 0 256 228">
        <title>React
            icon</title>
        <!-- Código SVG que almacenará el symbol -->
        <path
            d="M210.483381,73.8236374 C207.827698,72.9095503 205.075867,72.0446761 202.24247,71.2267368 C202.708172,69.3261098 203.135596,67.4500894 203.515631,65.6059664 C209.753843,35.3248922 205.675082,10.9302478 191.747328,2.89849283 C178.392359,-4.80289661 156.551327,3.22703567 134.492936,22.4237776 C132.371761,24.2697233 130.244662,26.2241201 128.118477,28.2723861 C126.701777,26.917204 125.287358,25.6075897 123.876584,24.3549348 C100.758745,3.82852863 77.5866802,-4.82157937 63.6725966,3.23341515 C50.3303869,10.9571328 46.3792156,33.8904224 51.9945178,62.5880206 C52.5367729,65.3599011 53.1706189,68.1905639 53.8873982,71.068617 C50.6078941,71.9995641 47.4418534,72.9920277 44.4125156,74.0478303 C17.3093297,83.497195 0,98.3066828 0,113.667995 C0,129.533287 18.5815786,145.446423 46.8116526,155.095373 C49.0394553,155.856809 51.3511025,156.576778 53.7333796,157.260293 C52.9600965,160.37302 52.2875179,163.423318 51.7229345,166.398431 C46.3687351,194.597975 50.5500231,216.989464 63.8566899,224.664425 C77.6012619,232.590464 100.66852,224.443422 123.130185,204.809231 C124.905501,203.257196 126.687196,201.611293 128.472081,199.886102 C130.785552,202.113904 133.095375,204.222319 135.392897,206.199955 C157.14963,224.922338 178.637969,232.482469 191.932332,224.786092 C205.663234,216.837268 210.125675,192.78347 204.332202,163.5181 C203.88974,161.283006 203.374826,158.99961 202.796573,156.675661 C204.416503,156.196743 206.006814,155.702335 207.557482,155.188332 C236.905331,145.46465 256,129.745175 256,113.667995 C256,98.2510906 238.132466,83.3418093 210.483381,73.8236374 L210.483381,73.8236374 Z M204.118035,144.807565 C202.718197,145.270987 201.281904,145.718918 199.818271,146.153177 C196.578411,135.896354 192.205739,124.989735 186.854729,113.72131 C191.961041,102.721277 196.164656,91.9540963 199.313837,81.7638014 C201.93261,82.5215915 204.474374,83.3208483 206.923636,84.1643056 C230.613348,92.3195488 245.063763,104.377206 245.063763,113.667995 C245.063763,123.564379 229.457753,136.411268 204.118035,144.807565 L204.118035,144.807565 Z M193.603754,165.642007 C196.165567,178.582766 196.531475,190.282717 194.834536,199.429057 C193.309843,207.64764 190.243595,213.12715 186.452366,215.321689 C178.384612,219.991462 161.131788,213.921395 142.525146,197.909832 C140.392124,196.074366 138.243609,194.114502 136.088259,192.040261 C143.301619,184.151133 150.510878,174.979732 157.54698,164.793993 C169.922699,163.695814 181.614905,161.900447 192.218042,159.449363 C192.740247,161.555956 193.204126,163.621993 193.603754,165.642007 L193.603754,165.642007 Z M87.2761866,214.514686 C79.3938934,217.298414 73.1160375,217.378157 69.3211631,215.189998 C61.2461189,210.532528 57.8891498,192.554265 62.4682434,168.438039 C62.9927272,165.676183 63.6170041,162.839142 64.3365173,159.939216 C74.8234575,162.258154 86.4299951,163.926841 98.8353334,164.932519 C105.918826,174.899534 113.336329,184.06091 120.811247,192.08264 C119.178102,193.65928 117.551336,195.16028 115.933685,196.574699 C106.001303,205.256705 96.0479605,211.41654 87.2761866,214.514686 L87.2761866,214.514686 Z M50.3486141,144.746959 C37.8658105,140.48046 27.5570398,134.935332 20.4908634,128.884403 C14.1414664,123.446815 10.9357817,118.048415 10.9357817,113.667995 C10.9357817,104.34622 24.8334611,92.4562517 48.0123604,84.3748281 C50.8247961,83.3942121 53.7689223,82.4701001 56.8242337,81.6020363 C60.0276398,92.0224477 64.229889,102.917218 69.3011135,113.93411 C64.1642716,125.11459 59.9023288,136.182975 56.6674809,146.725506 C54.489347,146.099407 52.3791089,145.440499 50.3486141,144.746959 L50.3486141,144.746959 Z M62.7270678,60.4878073 C57.9160346,35.9004118 61.1112387,17.3525532 69.1516515,12.6982729 C77.7160924,7.74005624 96.6544653,14.8094222 116.614922,32.5329619 C117.890816,33.6657739 119.171723,34.8514442 120.456275,36.0781256 C113.018267,44.0647686 105.66866,53.1573386 98.6480514,63.0655695 C86.6081646,64.1815215 75.0831931,65.9741531 64.4868907,68.3746571 C63.8206914,65.6948233 63.2305903,63.0619242 62.7270678,60.4878073 L62.7270678,60.4878073 Z M173.153901,87.7550367 C170.620796,83.3796304 168.020249,79.1076627 165.369124,74.9523483 C173.537126,75.9849113 181.362914,77.3555864 188.712066,79.0329319 C186.505679,86.1041206 183.755673,93.4974728 180.518546,101.076741 C178.196419,96.6680702 175.740322,92.2229454 173.153901,87.7550367 L173.153901,87.7550367 Z M128.122121,43.8938899 C133.166461,49.3588189 138.218091,55.4603279 143.186789,62.0803968 C138.179814,61.8439007 133.110868,61.720868 128.000001,61.720868 C122.937434,61.720868 117.905854,61.8411667 112.929865,62.0735617 C117.903575,55.515009 122.99895,49.4217021 128.122121,43.8938899 L128.122121,43.8938899 Z M82.8018984,87.830679 C80.2715265,92.2183886 77.8609975,96.6393627 75.5753239,101.068539 C72.3906004,93.5156998 69.6661103,86.0886276 67.440586,78.9171899 C74.7446255,77.2826781 82.5335049,75.9461789 90.6495601,74.9332099 C87.9610684,79.1268011 85.3391054,83.4302106 82.8018984,87.8297677 L82.8018984,87.830679 L82.8018984,87.830679 Z M90.8833221,153.182899 C82.4979621,152.247395 74.5919739,150.979704 67.289757,149.390303 C69.5508242,142.09082 72.3354636,134.505173 75.5876271,126.789657 C77.8792246,131.215644 80.2993228,135.638441 82.8451877,140.03572 L82.8456433,140.03572 C85.4388987,144.515476 88.1255676,148.90364 90.8833221,153.182899 L90.8833221,153.182899 Z M128.424691,184.213105 C123.24137,178.620587 118.071264,172.434323 113.021912,165.780078 C117.923624,165.972373 122.921029,166.0708 128.000001,166.0708 C133.217953,166.0708 138.376211,165.953235 143.45336,165.727219 C138.468257,172.501308 133.434855,178.697141 128.424691,184.213105 L128.424691,184.213105 Z M180.622896,126.396409 C184.044571,134.195313 186.929004,141.741317 189.219234,148.9164 C181.796719,150.609693 173.782736,151.973534 165.339049,152.986959 C167.996555,148.775595 170.619884,144.430263 173.197646,139.960532 C175.805484,135.438399 178.28163,130.90943 180.622896,126.396409 L180.622896,126.396409 Z M163.724586,134.496971 C159.722835,141.435557 155.614455,148.059271 151.443648,154.311611 C143.847063,154.854776 135.998946,155.134562 128.000001,155.134562 C120.033408,155.134562 112.284171,154.887129 104.822013,154.402745 C100.48306,148.068386 96.285368,141.425078 92.3091341,134.556664 L92.3100455,134.556664 C88.3442923,127.706935 84.6943232,120.799333 81.3870228,113.930466 C84.6934118,107.045648 88.3338117,100.130301 92.276781,93.292874 L92.2758697,93.294241 C96.2293193,86.4385872 100.390102,79.8276317 104.688954,73.5329157 C112.302398,72.9573964 120.109505,72.6571055 127.999545,72.6571055 L128.000001,72.6571055 C135.925583,72.6571055 143.742714,72.9596746 151.353879,73.5402067 C155.587114,79.7888993 159.719645,86.3784378 163.688588,93.2350031 C167.702644,100.168578 171.389978,107.037901 174.724618,113.77508 C171.400003,120.627999 167.720871,127.566587 163.724586,134.496971 L163.724586,134.496971 Z M186.284677,12.3729198 C194.857321,17.3165548 198.191049,37.2542268 192.804953,63.3986692 C192.461372,65.0669011 192.074504,66.7661189 191.654369,68.4881206 C181.03346,66.0374921 169.500286,64.2138746 157.425315,63.0810626 C150.391035,53.0639249 143.101577,43.9572289 135.784778,36.073113 C137.751934,34.1806885 139.716356,32.3762092 141.672575,30.673346 C160.572216,14.2257007 178.236518,7.73185406 186.284677,12.3729198 L186.284677,12.3729198 Z M128.000001,90.8080696 C140.624975,90.8080696 150.859926,101.042565 150.859926,113.667995 C150.859926,126.292969 140.624975,136.527922 128.000001,136.527922 C115.375026,136.527922 105.140075,126.292969 105.140075,113.667995 C105.140075,101.042565 115.375026,90.8080696 128.000001,90.8080696 L128.000001,90.8080696 Z"
            fill="#00D8FF">
        </path>
    </symbol>
    <symbol id="node" viewBox="0 0 256 289">
        <title>Node icon</title>
        <!-- Código SVG que almacenará el symbol -->
        <path
            d="M127.999999,288.463771 C124.024844,288.463771 120.314699,287.403728 116.869564,285.548656 L81.6231884,264.612838 C76.32298,261.697724 78.9730854,260.637682 80.5631458,260.107661 C87.7184259,257.72257 89.0434775,257.192547 96.4637688,252.952381 C97.2587979,252.422361 98.3188405,252.687372 99.1138718,253.217392 L126.144927,269.383024 C127.20497,269.913045 128.530021,269.913045 129.325053,269.383024 L235.064182,208.165634 C236.124225,207.635611 236.654245,206.575571 236.654245,205.250519 L236.654245,83.0807467 C236.654245,81.7556929 236.124225,80.6956526 235.064182,80.1656324 L129.325053,19.2132506 C128.26501,18.6832305 126.939959,18.6832305 126.144927,19.2132506 L20.4057954,80.1656324 C19.3457551,80.6956526 18.8157349,82.0207041 18.8157349,83.0807467 L18.8157349,205.250519 C18.8157349,206.31056 19.3457551,207.635611 20.4057954,208.165634 L49.2919247,224.861286 C64.9275364,232.811595 74.7329196,223.536234 74.7329196,214.260871 L74.7329196,93.681159 C74.7329196,92.0910985 76.0579711,90.5010358 77.9130428,90.5010358 L91.4285716,90.5010358 C93.0186343,90.5010358 94.6086948,91.8260873 94.6086948,93.681159 L94.6086948,214.260871 C94.6086948,235.196689 83.2132512,247.387164 63.3374737,247.387164 C57.2422362,247.387164 52.4720502,247.387164 38.9565214,240.761906 L11.1304347,224.861286 C4.24016581,220.886129 5.68434189e-14,213.46584 5.68434189e-14,205.515528 L5.68434189e-14,83.3457557 C5.68434189e-14,75.3954465 4.24016581,67.9751552 11.1304347,64.0000006 L116.869564,2.78260752 C123.494824,-0.927535841 132.505176,-0.927535841 139.130436,2.78260752 L244.869565,64.0000006 C251.759834,67.9751552 256,75.3954465 256,83.3457557 L256,205.515528 C256,213.46584 251.759834,220.886129 244.869565,224.861286 L139.130436,286.078676 C135.685299,287.668739 131.710145,288.463771 127.999999,288.463771 L127.999999,288.463771 Z M160.596274,204.455488 C114.219461,204.455488 104.679089,183.254659 104.679089,165.233955 C104.679089,163.643893 106.004141,162.053832 107.859212,162.053832 L121.639752,162.053832 C123.229813,162.053832 124.554864,163.113872 124.554864,164.703935 C126.674947,178.749484 132.770187,185.639753 160.861283,185.639753 C183.122154,185.639753 192.662526,180.604556 192.662526,168.67909 C192.662526,161.788821 190.012423,156.753624 155.296065,153.308489 C126.409938,150.393375 108.389235,144.033126 108.389235,120.977226 C108.389235,99.5113875 126.409938,86.7908901 156.621119,86.7908901 C190.542443,86.7908901 207.238095,98.4513472 209.358178,123.89234 C209.358178,124.687371 209.093167,125.482403 208.563147,126.277434 C208.033127,126.807454 207.238095,127.337474 206.443064,127.337474 L192.662526,127.337474 C191.337475,127.337474 190.012423,126.277434 189.747412,124.952382 C186.567289,110.376813 178.351966,105.606625 156.621119,105.606625 C132.240165,105.606625 129.325053,114.086957 129.325053,120.447205 C129.325053,128.132506 132.770187,130.5176 165.631471,134.757766 C198.227744,138.997931 213.598344,145.093169 213.598344,167.884058 C213.333333,191.20497 194.252589,204.455488 160.596274,204.455488 L160.596274,204.455488 Z"
            fill="#539E43"></path>
    </symbol>
    <symbol id="next" viewBox="0 0 512 104">
        <title>Next icon</title>
        <!-- Código SVG que almacenará el symbol -->
        <path
            d="M429.54331,0.0429770721 L429.54331,16.5035533 L394.165929,16.5035533 L394.165929,103.100426 L376.475939,103.100426 L376.475939,16.5035533 L340.361746,16.5035533 L340.361746,0.0429770721 L429.54331,0.0429770721 Z M433.519756,93.2825015 C434.76597,93.2825015 435.856244,93.7313462 436.778883,94.6289056 C437.714518,95.526465 438.181036,96.6012751 438.19403,97.8532061 C438.181036,98.703464 437.96532,99.4828995 437.533888,100.179687 C437.090761,100.88843 436.528081,101.443574 435.819858,101.845117 C435.124629,102.258485 434.357929,102.470952 433.519756,102.470952 C432.224162,102.470952 431.122193,102.022238 430.199553,101.124678 C429.276914,100.227119 428.820792,99.1404832 428.832487,97.8532061 C428.820792,96.6012751 429.276914,95.526465 430.199553,94.6289056 C431.122193,93.7313462 432.224162,93.2825015 433.519756,93.2825015 Z M82.9163208,103.100426 L17.6888203,22.0284751 L17.6888203,103.057413 L0,103.057413 L0,0 L22.1109929,0 L104.516873,102.328528 L104.518173,16.5035533 L104.510765,0.0429770721 L193.691939,0.0429770721 L193.691939,16.5035533 L122.206993,16.5035533 L122.206993,42.9835695 L179.695107,42.9835695 L179.695107,59.4441096 L122.206993,59.4441096 L122.206993,86.6398863 L193.691939,86.6398863 L193.691939,103.100426 L82.9163208,103.100426 Z M250.384893,59.2866112 L261.977665,73.7004508 L238.222944,103.222059 L215.007513,103.222059 L250.384893,59.2866112 Z M238.222944,0.085959602 L268.152853,37.2560569 L297.989198,0.200360934 L321.139655,0.164585909 L279.743025,51.6501442 L321.205929,103.14344 L297.989198,103.14344 L215.073787,0.085959602 L238.222944,0.085959602 Z M463.710863,59.0558213 L471.549401,59.0558213 L471.549401,89.2551147 C471.537706,92.0305706 470.93734,94.4044832 469.763898,96.4005036 C468.577462,98.3963939 466.934904,99.9197888 464.825827,100.994599 C462.728447,102.057454 460.271107,102.600902 457.478497,102.600902 C454.924995,102.600902 452.636589,102.140231 450.598985,101.242672 C448.561381,100.345113 446.943513,98.9987086 445.757076,97.2271107 C444.557645,95.4555127 443.970274,93.2470254 443.970274,90.6015188 L451.821807,90.6015188 C451.833503,91.7589766 452.097299,92.7627046 452.600203,93.601267 C453.103107,94.4398294 453.798335,95.0774904 454.685888,95.526335 C455.583838,95.9751797 456.615635,96.199602 457.777381,96.199602 C459.036589,96.199602 460.115168,95.9397036 460.989726,95.4082112 C461.864284,94.8885442 462.536122,94.1091086 463.003939,93.0697746 C463.458761,92.0423959 463.699168,90.7668142 463.710863,89.2551147 L463.710863,59.0558213 Z M503.801503,70.8662579 C503.610477,69.0356629 502.771005,67.6066112 501.309076,66.5909279 C499.834152,65.5634193 497.929096,65.0555777 495.59131,65.0555777 C493.950051,65.0555777 492.536203,65.3036508 491.361462,65.7878416 C490.186721,66.2838579 489.275777,66.9451695 488.65202,67.783732 C488.029563,68.6222944 487.717685,69.5789807 487.692995,70.6537909 C487.692995,71.5513503 487.908711,72.3307858 488.328447,72.980402 C488.748183,73.6417137 489.310863,74.1968569 490.042477,74.6457015 C490.761096,75.1062416 491.564183,75.484134 492.440041,75.7912041 C493.326294,76.0982741 494.213848,76.3581726 495.100102,76.5707695 L499.187005,77.5746274 C500.829563,77.9525198 502.424041,78.4604914 503.945746,79.1099777 C505.467452,79.7477685 506.846213,80.5626802 508.056041,81.5428873 C509.267168,82.5232244 510.226193,83.704203 510.933117,85.0860832 C511.640041,86.4678335 512,88.0858315 512,89.9519025 C512,92.4674599 511.352853,94.6760772 510.045563,96.5893198 C508.739574,98.4907371 506.857909,99.9789157 504.388873,101.053726 C501.931533,102.116711 498.959594,102.659898 495.460061,102.659898 C492.080081,102.659898 489.131533,102.140361 486.650802,101.101027 C484.158376,100.073519 482.215635,98.5616893 480.813482,96.5774944 C479.41133,94.5934294 478.656325,92.1722152 478.548467,89.3259371 L486.315533,89.3259371 C486.423391,90.8139858 486.902904,92.0542213 487.717685,93.0580792 C488.544162,94.0501117 489.622741,94.7823756 490.941726,95.2783919 C492.272406,95.7625827 493.757726,96.0106558 495.400284,96.0106558 C497.114315,96.0106558 498.624325,95.7507574 499.930315,95.2429157 C501.224609,94.7350741 502.243411,94.0265909 502.975025,93.1053807 C503.718335,92.195866 504.08999,91.1211858 504.101685,89.8929056 C504.08999,88.7709239 503.753421,87.8377584 503.106274,87.1054944 C502.447431,86.3733604 501.536487,85.7592203 500.373442,85.2632041 C499.2,84.7671878 497.832934,84.3183431 496.274843,83.9286254 L491.313381,82.6766944 C487.729381,81.7673096 484.88869,80.3855594 482.814701,78.5313137 C480.730315,76.677068 479.698518,74.2205076 479.698518,71.1379817 C479.698518,68.610599 480.393746,66.3902863 481.797198,64.4887391 C483.186355,62.5873218 485.092711,61.1109685 487.50197,60.0598091 C489.922924,58.9969543 492.655756,58.4771574 495.699168,58.4771574 C498.791959,58.4771574 501.500102,58.9969543 503.837888,60.0598091 C506.174376,61.1109685 508.009259,62.5754964 509.33864,64.4414376 C510.66932,66.3075086 511.364548,68.4451736 511.400934,70.8662579 L503.801503,70.8662579 Z"
            fill="#000000"></path>
    </symbol>
    <symbol id="sass" viewBox="0 0 256 192">
        <title>Sass
            icon</title>
        <!-- Código SVG que almacenará el symbol -->
        <path
            d="M220.281239,110.513661 C211.374863,110.560291 203.634244,112.705282 197.152641,115.876138 C194.774499,111.166485 192.396357,106.969763 191.976685,103.892168 C191.510383,100.301639 190.95082,98.1100182 191.510383,93.8200364 C192.069945,89.5300546 194.587978,83.4214936 194.541348,82.9551913 C194.494718,82.4888889 193.981785,80.2972678 188.852459,80.2506375 C183.723133,80.2040073 179.29326,81.2298725 178.780328,82.5821494 C178.267395,83.9344262 177.28816,87.0120219 176.635337,90.182878 C175.749362,94.8459016 166.376685,111.492896 161.014208,120.21275 C159.288889,116.808743 157.796721,113.824408 157.47031,111.446266 C157.004007,107.855738 156.444444,105.664117 157.004007,101.374135 C157.56357,97.084153 160.081603,90.975592 160.034973,90.5092896 C159.988342,90.0429872 159.47541,87.8513661 154.346084,87.8047359 C149.216758,87.7581056 144.786885,88.7839709 144.273953,90.1362477 C143.76102,91.4885246 143.201457,94.6593807 142.128962,97.7369763 C141.056466,100.814572 128.606193,128.606193 125.342077,135.78725 C123.663388,139.471038 122.217851,142.408743 121.191985,144.413843 L121.191985,144.413843 C121.191985,144.413843 121.145355,144.553734 121.005464,144.786885 C120.11949,146.512204 119.606557,147.444809 119.606557,147.444809 C119.606557,147.444809 119.606557,147.444809 119.606557,147.491439 C118.907104,148.750455 118.16102,149.916211 117.787978,149.916211 C117.508197,149.916211 116.995264,146.558834 117.881239,141.989071 C119.746448,132.336612 124.176321,117.321676 124.12969,116.808743 C124.12969,116.528962 124.969035,113.917668 121.238616,112.565392 C117.601457,111.213115 116.295811,113.451366 115.969399,113.451366 C115.642987,113.451366 115.409836,114.24408 115.409836,114.24408 C115.409836,114.24408 119.466667,97.3639344 107.669217,97.3639344 C100.301639,97.3639344 90.1362477,105.430965 85.1001821,112.705282 C81.929326,114.430601 75.1679417,118.11439 67.940255,122.07796 C65.189071,123.616758 62.3446266,125.155556 59.6867031,126.601093 C59.5001821,126.414572 59.3136612,126.181421 59.1271403,125.9949 C44.8582878,110.746812 18.4655738,99.9752277 19.5846995,79.5045537 C20.0043716,72.0437158 22.5690346,52.4590164 70.2717668,28.6775956 C109.534426,9.32604736 140.776685,14.6885246 146.185792,26.579235 C153.926412,43.5526412 129.445537,75.0746812 88.8772313,79.6444444 C73.3959927,81.3697632 65.2823315,75.4010929 63.2306011,73.1628415 C61.0856102,70.8313297 60.7591985,70.691439 59.9664845,71.1577413 C58.6608379,71.8571949 59.5001821,73.9555556 59.9664845,75.1679417 C61.1788707,78.3387978 66.168306,83.9344262 74.6083789,86.6856102 C82.0692168,89.1103825 100.208379,90.4626594 122.17122,81.9759563 C146.745355,72.463388 165.957013,46.0240437 160.314754,23.8746812 C154.672495,1.3989071 117.368306,-6.01530055 82.0692168,6.52823315 C61.0856102,13.989071 38.3300546,25.7398907 21.9628415,41.0346084 C2.51803279,59.2204007 -0.559562842,75.028051 0.699453552,81.6495446 C5.22258652,105.151184 37.6306011,120.445902 50.5938069,131.777049 C49.9409836,132.150091 49.3347905,132.476503 48.8218579,132.756284 C42.340255,135.97377 17.6262295,148.890346 11.4710383,162.553005 C4.47650273,178.034244 12.5901639,189.13224 17.9526412,190.624408 C34.5996357,195.240801 51.7129326,186.940619 60.8990893,173.23133 C70.0852459,159.52204 68.9661202,141.70929 64.7227687,133.548998 C64.6761384,133.455738 64.6295082,133.362477 64.5362477,133.269217 C66.2149362,132.289982 67.940255,131.264117 69.6189435,130.284882 C72.9296903,128.326412 76.1938069,126.507832 78.9916211,125.015665 C77.4061931,129.352277 76.2404372,134.528233 75.6808743,141.989071 C74.9814208,150.755556 78.571949,162.133333 83.2816029,166.609836 C85.3799636,168.568306 87.8513661,168.614936 89.4367942,168.614936 C94.9391621,168.614936 97.4105647,164.045173 100.161749,158.636066 C103.519126,152.014572 106.550091,144.320583 106.550091,144.320583 C106.550091,144.320583 102.773042,165.117668 113.031694,165.117668 C116.762113,165.117668 120.539162,160.268124 122.217851,157.796721 L122.217851,157.843352 C122.217851,157.843352 122.311111,157.703461 122.497632,157.377049 C122.870674,156.770856 123.103825,156.397814 123.103825,156.397814 L123.103825,156.304554 C124.595993,153.69326 127.95337,147.77122 132.942805,137.93224 C139.377778,125.248816 145.579599,109.394536 145.579599,109.394536 C145.579599,109.394536 146.139162,113.264845 148.051002,119.699818 C149.170128,123.476867 151.501639,127.626958 153.366849,131.637158 C151.874681,133.735519 150.942077,134.901275 150.942077,134.901275 C150.942077,134.901275 150.942077,134.901275 150.988707,134.947905 C149.776321,136.533333 148.470674,138.258652 147.025137,139.937341 C141.942441,145.999271 135.88051,152.947177 135.041166,154.952277 C134.061931,157.330419 134.295082,159.055738 136.160291,160.454645 C137.512568,161.48051 139.937341,161.620401 142.408743,161.48051 C146.978506,161.154098 150.195993,160.034973 151.781421,159.335519 C154.252823,158.449545 157.143898,157.097268 159.848452,155.092168 C164.837887,151.408379 167.868852,146.139162 167.589071,139.191257 C167.44918,135.367577 166.190164,131.543898 164.651366,127.95337 C165.117668,127.300546 165.537341,126.647723 166.003643,125.9949 C173.884153,114.477231 179.992714,101.840437 179.992714,101.840437 C179.992714,101.840437 180.552277,105.710747 182.464117,112.145719 C183.396721,115.409836 185.308561,118.953734 186.98725,122.404372 C179.573042,128.419672 175.003279,135.414208 173.37122,139.983971 C170.433515,148.470674 172.718397,152.294353 177.055009,153.180328 C179.013479,153.6 181.811293,152.667395 183.863024,151.781421 C186.474317,150.942077 189.551913,149.496539 192.489617,147.351548 C197.479053,143.66776 202.281967,138.538434 202.002186,131.590528 C201.862295,128.419672 201.022951,125.295446 199.857195,122.264481 C206.152277,119.653188 214.265938,118.20765 224.617851,119.420036 C246.813843,122.03133 251.197086,135.88051 250.357741,141.70929 C249.518397,147.538069 244.855373,150.708925 243.316576,151.68816 C241.777778,152.667395 241.264845,152.993807 241.404736,153.69326 C241.591257,154.719126 242.337341,154.672495 243.642987,154.485974 C245.461566,154.159563 255.300546,149.776321 255.720219,139.051366 C256.419672,125.342077 243.363206,110.37377 220.281239,110.513661 L220.281239,110.513661 Z M49.0550091,168.241894 C41.6874317,176.262295 31.4287796,179.29326 26.9989071,176.728597 C22.242623,173.977413 24.1078324,162.133333 33.1540984,153.64663 C38.6564663,148.470674 45.7442623,143.66776 50.4539162,140.730055 C51.5264117,140.077231 53.1118397,139.144627 55.0236794,137.978871 C55.3500911,137.79235 55.536612,137.699089 55.536612,137.699089 L55.536612,137.699089 C55.9096539,137.465938 56.2826958,137.232787 56.6557377,136.999636 C59.9664845,149.123497 56.7956284,159.801821 49.0550091,168.241894 L49.0550091,168.241894 Z M102.679781,131.777049 C100.115118,138.025501 94.7526412,154.019672 91.4885246,153.133698 C88.6907104,152.387614 86.9653916,140.263752 90.9289617,128.279781 C92.9340619,122.264481 97.1774135,115.083424 99.648816,112.28561 C103.659016,107.809107 108.088889,106.31694 109.161384,108.135519 C110.513661,110.513661 104.265209,127.860109 102.679781,131.777049 L102.679781,131.777049 Z M146.931876,152.947177 C145.859381,153.50674 144.833515,153.879781 144.367213,153.6 C144.040801,153.413479 144.833515,152.667395 144.833515,152.667395 C144.833515,152.667395 150.382514,146.698725 152.574135,143.994171 C153.833151,142.408743 155.325319,140.543534 156.910747,138.445173 L156.910747,139.051366 C156.910747,146.185792 150.009472,150.988707 146.931876,152.947177 L146.931876,152.947177 Z M181.065209,145.159927 C180.272495,144.600364 180.412386,142.735155 183.07031,136.906375 C184.096175,134.621494 186.520947,130.797814 190.671038,127.114026 C191.137341,128.606193 191.463752,130.05173 191.417122,131.404007 C191.370492,140.403643 184.935519,143.76102 181.065209,145.159927 L181.065209,145.159927 Z"
            fill="#CD6799"></path>
    </symbol>
    <symbol id="notas" viewBox="0 0 24 24">
        <title>Notas</title>
        <rect fill="none" height="24" width="24" />
        <path
            d="M19,3H4.99C3.89,3,3,3.9,3,5l0.01,14c0,1.1,0.89,2,1.99,2h10l6-6V5C21,3.9,20.1,3,19,3z M7,8h10v2H7V8z M12,14H7v-2h5V14z M14,19.5V14h5.5L14,19.5z" />
    </symbol>

    <symbol id="estudios" viewBox="0 0 24 24">
        <title>Estudios</title>
        <path d="M0 0h24v24H0z" fill="none" />
        <path d="M5 13.18v4L12 21l7-3.82v-4L12 17l-7-3.82zM12 3L1 9l11 6 9-4.91V17h2V9L12 3z" />
    </symbol>

    <symbol id="portafolio" viewBox="0 0 24 24">
        <title>Portafolio</title>
        <path fill-rule="evenodd" clip-rule="evenodd"
            d="M7.93972 4C7.93972 2.34315 9.28286 1 10.9397 1H14.9397C16.5966 1 17.9397 2.34315 17.9397 4V5H19.9397C21.5966 5 22.9397 6.34315 22.9397 8V13.232C22.9401 13.2474 22.9401 13.2628 22.9397 13.2782V18C22.9397 19.6569 21.5966 21 19.9397 21H5.93972C4.28286 21 2.93972 19.6569 2.93972 18V13.278C2.93937 13.2628 2.93936 13.2475 2.93972 13.2322V8C2.93972 6.34315 4.28286 5 5.93972 5H7.93972V4ZM5.93972 7C5.38743 7 4.93972 7.44772 4.93972 8V12.5708C7.43008 13.4948 10.1248 14 12.9397 14C15.7546 14 18.4494 13.4948 20.9397 12.5708V8C20.9397 7.44772 20.492 7 19.9397 7H5.93972ZM15.9397 5H9.93972V4C9.93972 3.44772 10.3874 3 10.9397 3H14.9397C15.492 3 15.9397 3.44772 15.9397 4V5ZM20.9397 14.6923C18.4269 15.5405 15.7361 16 12.9397 16C10.1433 16 7.45251 15.5405 4.93972 14.6923V18C4.93972 18.5523 5.38743 19 5.93972 19H19.9397C20.492 19 20.9397 18.5523 20.9397 18V14.6923ZM11.9397 12C11.9397 11.4477 12.3874 11 12.9397 11H12.9497C13.502 11 13.9497 11.4477 13.9497 12C13.9497 12.5523 13.502 13 12.9497 13H12.9397C12.3874 13 11.9397 12.5523 11.9397 12Z"
        />
    </symbol>


    <symbol id="cursos" viewBox="0 0 24 24">
        <title>Cursos</title>
        <path d="M0 0h24v24H0V0z" fill="none" />
        <path
            d="M19 3H4.99c-1.11 0-1.98.89-1.98 2L3 19c0 1.1.88 2 1.99 2H19c1.1 0 2-.9 2-2V5c0-1.11-.9-2-2-2zm0 12h-4c0 1.66-1.35 3-3 3s-3-1.34-3-3H4.99V5H19v10z" />
    </symbol>

    <symbol id="inicio" viewBox="0 0 24 24">
        <title>Inicio</title>
        <path d="M0 0h24v24H0z" fill="none" />
        <path d="M10 20v-6h4v6h5v-8h3L12 3 2 12h3v8z" />
    </symbol>
    <symbol id="arrow" viewBox="0 0 9 16">
        <title>Arrow</title>
        <path fill-rule="evenodd" clip-rule="evenodd"
            d="M8.70711 0.292893C9.09763 0.683417 9.09763 1.31658 8.70711 1.70711L2.41421 8L8.70711 14.2929C9.09763 14.6834 9.09763 15.3166 8.70711 15.7071C8.31658 16.0976 7.68342 16.0976 7.29289 15.7071L0.292894 8.70711C-0.0976314 8.31658 -0.0976314 7.68342 0.292893 7.29289L7.29289 0.292893C7.68342 -0.0976311 8.31658 -0.0976311 8.70711 0.292893Z"
        />
    </symbol>
    <symbol id="people" viewBox="0 0 30 24">
        <title>People</title>
        <path fill-rule="evenodd" clip-rule="evenodd"
            d="M14.9997 2.66667C13.5269 2.66667 12.333 3.86057 12.333 5.33333C12.333 6.80609 13.5269 8 14.9997 8C16.4724 8 17.6663 6.80609 17.6663 5.33333C17.6663 3.86057 16.4724 2.66667 14.9997 2.66667ZM9.66634 5.33333C9.66634 2.38781 12.0542 0 14.9997 0C17.9452 0 20.333 2.38781 20.333 5.33333C20.333 8.27885 17.9452 10.6667 14.9997 10.6667C12.0542 10.6667 9.66634 8.27885 9.66634 5.33333ZM5.66634 8C4.92996 8 4.33301 8.59695 4.33301 9.33333C4.33301 10.0697 4.92996 10.6667 5.66634 10.6667C6.40272 10.6667 6.99967 10.0697 6.99967 9.33333C6.99967 8.59695 6.40272 8 5.66634 8ZM1.66634 9.33333C1.66634 7.12419 3.4572 5.33333 5.66634 5.33333C7.87548 5.33333 9.66634 7.12419 9.66634 9.33333C9.66634 11.5425 7.87548 13.3333 5.66634 13.3333C3.4572 13.3333 1.66634 11.5425 1.66634 9.33333ZM24.333 8C23.5966 8 22.9997 8.59695 22.9997 9.33333C22.9997 10.0697 23.5966 10.6667 24.333 10.6667C25.0694 10.6667 25.6663 10.0697 25.6663 9.33333C25.6663 8.59695 25.0694 8 24.333 8ZM20.333 9.33333C20.333 7.12419 22.1239 5.33333 24.333 5.33333C26.5421 5.33333 28.333 7.12419 28.333 9.33333C28.333 11.5425 26.5421 13.3333 24.333 13.3333C22.1239 13.3333 20.333 11.5425 20.333 9.33333ZM14.9997 14.6667C12.7562 14.6667 10.8332 16.0523 10.0459 18.0193C9.80144 18.6299 9.66634 19.2976 9.66634 20V21.3333H20.333V20C20.333 19.2976 20.1979 18.6299 19.9535 18.0193C19.1661 16.0523 17.2431 14.6667 14.9997 14.6667ZM22.9997 21.3333H26.9997V20C26.9997 18.5272 25.8058 17.3333 24.333 17.3333C23.7249 17.3333 23.1646 17.5361 22.7153 17.8797C22.9008 18.556 22.9997 19.2673 22.9997 20V21.3333ZM21.5712 15.4369C20.1269 13.3607 17.7233 12 14.9997 12C12.2761 12 9.8724 13.3607 8.42818 15.4369C7.62289 14.9485 6.6774 14.6667 5.66634 14.6667C2.72082 14.6667 0.333008 17.0545 0.333008 20V22.6667C0.333008 23.403 0.929961 24 1.66634 24H28.333C29.0694 24 29.6663 23.403 29.6663 22.6667V20C29.6663 17.0545 27.2785 14.6667 24.333 14.6667C23.3219 14.6667 22.3765 14.9485 21.5712 15.4369ZM7.28404 17.8797C6.83477 17.5361 6.27443 17.3333 5.66634 17.3333C4.19358 17.3333 2.99967 18.5272 2.99967 20V21.3333H6.99967V20C6.99967 19.2673 7.09853 18.556 7.28404 17.8797Z"
        />
    </symbol>

    <symbol id="youtube" viewBox="0 0 256 180">
        <title>Youtube</title>
        <g>
            <path
                d="M250.346231,28.0746923 C247.358133,17.0320558 238.732098,8.40602109 227.689461,5.41792308 C207.823743,0 127.868333,0 127.868333,0 C127.868333,0 47.9129229,0.164179487 28.0472049,5.58210256 C17.0045684,8.57020058 8.37853373,17.1962353 5.39043571,28.2388718 C-0.618533519,63.5374615 -2.94988224,117.322662 5.5546152,151.209308 C8.54271322,162.251944 17.1687479,170.877979 28.2113844,173.866077 C48.0771024,179.284 128.032513,179.284 128.032513,179.284 C128.032513,179.284 207.987923,179.284 227.853641,173.866077 C238.896277,170.877979 247.522312,162.251944 250.51041,151.209308 C256.847738,115.861464 258.801474,62.1091 250.346231,28.0746923 Z"
                fill="#FF0000"></path>
            <polygon fill="#FFFFFF" points="102.420513 128.06 168.749025 89.642 102.420513 51.224"></polygon>
        </g>
    </symbol>

    <symbol id="linkedin" viewBox="0 0 256 256">
        <title>Linkedin</title>
        <path
            d="M218.123122,218.127392 L180.191928,218.127392 L180.191928,158.724263 C180.191928,144.559023 179.939053,126.323993 160.463756,126.323993 C140.707926,126.323993 137.685284,141.757585 137.685284,157.692986 L137.685284,218.123441 L99.7540894,218.123441 L99.7540894,95.9665207 L136.168036,95.9665207 L136.168036,112.660562 L136.677736,112.660562 C144.102746,99.9650027 157.908637,92.3824528 172.605689,92.9280076 C211.050535,92.9280076 218.138927,118.216023 218.138927,151.114151 L218.123122,218.127392 Z M56.9550587,79.2685282 C44.7981969,79.2707099 34.9413443,69.4171797 34.9391618,57.260052 C34.93698,45.1029244 44.7902948,35.2458562 56.9471566,35.2436736 C69.1040185,35.2414916 78.9608713,45.0950217 78.963054,57.2521493 C78.9641017,63.090208 76.6459976,68.6895714 72.5186979,72.8184433 C68.3913982,76.9473153 62.7929898,79.26748 56.9550587,79.2685282 M75.9206558,218.127392 L37.94995,218.127392 L37.94995,95.9665207 L75.9206558,95.9665207 L75.9206558,218.127392 Z M237.033403,0.0182577091 L18.8895249,0.0182577091 C8.57959469,-0.0980923971 0.124827038,8.16056231 -0.001,18.4706066 L-0.001,237.524091 C0.120519052,247.839103 8.57460631,256.105934 18.8895249,255.9977 L237.033403,255.9977 C247.368728,256.125818 255.855922,247.859464 255.999,237.524091 L255.999,18.4548016 C255.851624,8.12438979 247.363742,-0.133792868 237.033403,0.000790807055"
            fill="#0A66C2"></path>
    </symbol>

    <symbol id="twitter" viewBox="0 0 256 209">
        <title>Twitter</title>
        <path
            d="M256,25.4500259 C246.580841,29.6272672 236.458451,32.4504868 225.834156,33.7202333 C236.678503,27.2198053 245.00583,16.9269929 248.927437,4.66307685 C238.779765,10.6812633 227.539325,15.0523376 215.57599,17.408298 C205.994835,7.2006971 192.34506,0.822 177.239197,0.822 C148.232605,0.822 124.716076,24.3375931 124.716076,53.3423116 C124.716076,57.4586875 125.181462,61.4673784 126.076652,65.3112644 C82.4258385,63.1210453 43.7257252,42.211429 17.821398,10.4359288 C13.3005011,18.1929938 10.710443,27.2151234 10.710443,36.8402889 C10.710443,55.061526 19.9835254,71.1374907 34.0762135,80.5557137 C25.4660961,80.2832239 17.3681846,77.9207088 10.2862577,73.9869292 C10.2825122,74.2060448 10.2825122,74.4260967 10.2825122,74.647085 C10.2825122,100.094453 28.3867003,121.322443 52.413563,126.14673 C48.0059695,127.347184 43.3661509,127.988612 38.5755734,127.988612 C35.1914554,127.988612 31.9009766,127.659938 28.694773,127.046602 C35.3777973,147.913145 54.7742053,163.097665 77.7569918,163.52185 C59.7820257,177.607983 37.1354036,186.004604 12.5289147,186.004604 C8.28987161,186.004604 4.10888474,185.75646 0,185.271409 C23.2431033,200.173139 50.8507261,208.867532 80.5109185,208.867532 C177.116529,208.867532 229.943977,128.836982 229.943977,59.4326002 C229.943977,57.1552968 229.893412,54.8901664 229.792282,52.6381454 C240.053257,45.2331635 248.958338,35.9825545 256,25.4500259"
            fill="#55acee"></path>
    </symbol>

    <symbol id="github" viewBox="0 0 256 250">
        <title>Github</title>
        <path
            d="M128.00106,0 C57.3172926,0 0,57.3066942 0,128.00106 C0,184.555281 36.6761997,232.535542 87.534937,249.460899 C93.9320223,250.645779 96.280588,246.684165 96.280588,243.303333 C96.280588,240.251045 96.1618878,230.167899 96.106777,219.472176 C60.4967585,227.215235 52.9826207,204.369712 52.9826207,204.369712 C47.1599584,189.574598 38.770408,185.640538 38.770408,185.640538 C27.1568785,177.696113 39.6458206,177.859325 39.6458206,177.859325 C52.4993419,178.762293 59.267365,191.04987 59.267365,191.04987 C70.6837675,210.618423 89.2115753,204.961093 96.5158685,201.690482 C97.6647155,193.417512 100.981959,187.77078 104.642583,184.574357 C76.211799,181.33766 46.324819,170.362144 46.324819,121.315702 C46.324819,107.340889 51.3250588,95.9223682 59.5132437,86.9583937 C58.1842268,83.7344152 53.8029229,70.715562 60.7532354,53.0843636 C60.7532354,53.0843636 71.5019501,49.6441813 95.9626412,66.2049595 C106.172967,63.368876 117.123047,61.9465949 128.00106,61.8978432 C138.879073,61.9465949 149.837632,63.368876 160.067033,66.2049595 C184.49805,49.6441813 195.231926,53.0843636 195.231926,53.0843636 C202.199197,70.715562 197.815773,83.7344152 196.486756,86.9583937 C204.694018,95.9223682 209.660343,107.340889 209.660343,121.315702 C209.660343,170.478725 179.716133,181.303747 151.213281,184.472614 C155.80443,188.444828 159.895342,196.234518 159.895342,208.176593 C159.895342,225.303317 159.746968,239.087361 159.746968,243.303333 C159.746968,246.709601 162.05102,250.70089 168.53925,249.443941 C219.370432,232.499507 256,184.536204 256,128.00106 C256,57.3066942 198.691187,0 128.00106,0 Z M47.9405593,182.340212 C47.6586465,182.976105 46.6581745,183.166873 45.7467277,182.730227 C44.8183235,182.312656 44.2968914,181.445722 44.5978808,180.80771 C44.8734344,180.152739 45.876026,179.97045 46.8023103,180.409216 C47.7328342,180.826786 48.2627451,181.702199 47.9405593,182.340212 Z M54.2367892,187.958254 C53.6263318,188.524199 52.4329723,188.261363 51.6232682,187.366874 C50.7860088,186.474504 50.6291553,185.281144 51.2480912,184.70672 C51.8776254,184.140775 53.0349512,184.405731 53.8743302,185.298101 C54.7115892,186.201069 54.8748019,187.38595 54.2367892,187.958254 Z M58.5562413,195.146347 C57.7719732,195.691096 56.4895886,195.180261 55.6968417,194.042013 C54.9125733,192.903764 54.9125733,191.538713 55.713799,190.991845 C56.5086651,190.444977 57.7719732,190.936735 58.5753181,192.066505 C59.3574669,193.22383 59.3574669,194.58888 58.5562413,195.146347 Z M65.8613592,203.471174 C65.1597571,204.244846 63.6654083,204.03712 62.5716717,202.981538 C61.4524999,201.94927 61.1409122,200.484596 61.8446341,199.710926 C62.5547146,198.935137 64.0575422,199.15346 65.1597571,200.200564 C66.2704506,201.230712 66.6095936,202.705984 65.8613592,203.471174 Z M75.3025151,206.281542 C74.9930474,207.284134 73.553809,207.739857 72.1039724,207.313809 C70.6562556,206.875043 69.7087748,205.700761 70.0012857,204.687571 C70.302275,203.678621 71.7478721,203.20382 73.2083069,203.659543 C74.6539041,204.09619 75.6035048,205.261994 75.3025151,206.281542 Z M86.046947,207.473627 C86.0829806,208.529209 84.8535871,209.404622 83.3316829,209.4237 C81.8013,209.457614 80.563428,208.603398 80.5464708,207.564772 C80.5464708,206.498591 81.7483088,205.631657 83.2786917,205.606221 C84.8005962,205.576546 86.046947,206.424403 86.046947,207.473627 Z M96.6021471,207.069023 C96.7844366,208.099171 95.7267341,209.156872 94.215428,209.438785 C92.7295577,209.710099 91.3539086,209.074206 91.1652603,208.052538 C90.9808515,206.996955 92.0576306,205.939253 93.5413813,205.66582 C95.054807,205.402984 96.4092596,206.021919 96.6021471,207.069023 Z"
            fill="#161614"></path>
    </symbol>

</svg>